<svg width="113.3" height="91.101" viewBox="0 0 113.3 91.101" xmlns="http://www.w3.org/2000/svg"><g id="svgGroup" stroke-linecap="round" fill-rule="evenodd" font-size="9pt" stroke="#000" stroke-width="0.25mm" fill="#000" style="stroke:#000;stroke-width:0.25mm;fill:#000"><path d="M 4.4 89.701 Q 1.8 89.701 0.9 88.601 Q 0 87.501 0 85.801 Q 0 83.001 2.75 79.451 Q 5.5 75.901 10.15 72.251 Q 14.8 68.601 20.55 65.501 Q 26.3 62.401 32.4 60.501 Q 37.7 58.901 42.8 57.651 Q 47.9 56.401 52.1 55.151 Q 56.3 53.901 58.9 52.501 Q 60.3 51.701 60.5 52.151 Q 60.7 52.601 59.7 53.101 Q 57.4 54.401 53.95 55.551 Q 50.5 56.701 46.6 57.751 Q 42.7 58.801 39 59.801 Q 35.3 60.801 32.4 61.701 Q 28.1 63.101 23.7 65.301 Q 19.3 67.501 15.3 70.101 Q 11.3 72.701 8.1 75.501 Q 4.9 78.301 3.05 80.951 Q 1.2 83.601 1.2 85.801 Q 1.2 87.101 1.9 87.851 Q 2.6 88.601 4.4 88.601 Q 8.1 88.601 12.6 85.701 Q 17.1 82.801 21.95 77.951 Q 26.8 73.101 31.7 67.301 Q 36.6 61.501 41.05 55.551 Q 45.5 49.601 49.2 44.501 Q 52.9 39.401 55.3 36.101 Q 59.2 30.801 63.6 25.701 Q 68 20.601 72.75 16.551 Q 77.5 12.501 82.6 10.101 Q 87.7 7.701 92.9 7.701 Q 94.6 7.701 94.55 8.351 Q 94.5 9.001 92.4 9.001 Q 91.6 9.001 89.3 8.851 Q 87 8.701 84.75 8.551 Q 82.5 8.401 81.5 8.401 Q 76 8.401 70.3 10.051 Q 64.6 11.701 59.4 14.651 Q 54.2 17.601 50.05 21.351 Q 45.9 25.101 43.45 29.351 Q 41 33.601 41 37.901 Q 41 40.001 41.85 42.101 Q 42.7 44.201 44.7 45.551 Q 46.7 46.901 50.2 46.901 Q 54.1 46.901 57.95 45.351 Q 61.8 43.801 65.2 41.201 Q 68.6 38.601 71.1 35.301 Q 73.6 32.001 74.95 28.401 Q 76.3 24.801 76.1 21.401 Q 76 20.001 76.4 19.901 Q 76.8 19.801 76.9 21.101 Q 77.4 25.901 75.3 30.651 Q 73.2 35.401 69.4 39.301 Q 65.6 43.201 60.65 45.551 Q 55.7 47.901 50.4 47.901 Q 45.5 47.901 42.55 45.401 Q 39.6 42.901 39.6 37.901 Q 39.6 33.401 42 29.001 Q 44.4 24.601 48.6 20.701 Q 52.8 16.801 58.2 13.851 Q 63.6 10.901 69.6 9.201 Q 75.6 7.501 81.5 7.501 Q 83.9 7.501 86.55 7.751 Q 89.2 8.001 91 8.001 Q 92.1 8.001 91.9 8.301 Q 91.7 8.601 91.2 8.701 Q 85.5 9.701 80.8 12.251 Q 76.1 14.801 72.05 18.551 Q 68 22.301 64.25 26.901 Q 60.5 31.501 56.6 36.701 Q 54.4 39.701 50.8 44.701 Q 47.2 49.701 42.75 55.701 Q 38.3 61.701 33.3 67.651 Q 28.3 73.601 23.2 78.601 Q 18.1 83.601 13.3 86.651 Q 8.5 89.701 4.4 89.701 Z M 53.9 91.101 Q 52 91.101 50.9 89.951 Q 49.8 88.801 49.8 86.901 Q 49.8 83.601 53.2 77.651 Q 56.6 71.701 62.15 63.401 Q 67.7 55.101 74.2 45.101 Q 79.6 36.801 84.8 28.751 Q 90 20.701 94.7 14.201 Q 99.4 7.701 103.3 3.851 Q 107.2 0.001 110 0.001 Q 113.3 0.001 113.3 4.001 Q 113.3 7.201 111.05 11.601 Q 108.8 16.001 105 20.901 Q 101.2 25.801 96.6 30.651 Q 92 35.501 87.35 39.751 Q 82.7 44.001 78.6 47.051 Q 74.5 50.101 71.7 51.401 Q 71 51.701 70.95 51.051 Q 70.9 50.401 71.6 50.101 Q 74.5 48.801 78.55 45.801 Q 82.6 42.801 87.15 38.601 Q 91.7 34.401 96.1 29.701 Q 100.5 25.001 104.15 20.251 Q 107.8 15.501 109.95 11.251 Q 112.1 7.001 112.1 4.001 Q 112.1 2.701 111.75 1.801 Q 111.4 0.901 110 0.901 Q 107.5 0.901 103.9 4.551 Q 100.3 8.201 95.75 14.551 Q 91.2 20.901 85.9 29.051 Q 80.6 37.201 74.9 46.201 Q 70.6 53.001 66.35 59.351 Q 62.1 65.701 58.6 71.051 Q 55.1 76.401 53.05 80.501 Q 51 84.601 51 86.901 Q 51 88.301 51.65 89.201 Q 52.3 90.101 53.9 90.101 Q 56.8 90.101 59.95 86.601 Q 63.1 83.101 65.75 77.301 Q 68.4 71.501 70.05 64.451 Q 71.7 57.401 71.7 50.401 Q 71.7 49.301 72.25 49.001 Q 72.8 48.701 72.8 49.501 Q 72.8 56.901 71.2 64.301 Q 69.6 71.701 66.85 77.751 Q 64.1 83.801 60.75 87.451 Q 57.4 91.101 53.9 91.101 Z M 95.5 45.201 L 96.4 45.801 Q 96.1 46.201 94.9 47.601 Q 93.7 49.001 91.7 50.651 Q 89.7 52.301 86.95 53.501 Q 84.2 54.701 80.8 54.701 Q 77.3 54.701 75.05 53.451 Q 72.8 52.201 71.5 50.401 Q 70.2 48.601 69.7 46.751 Q 69.2 44.901 69.2 43.601 Q 69.2 42.301 69.95 41.451 Q 70.7 40.601 71.7 40.601 Q 73 40.601 73.4 41.401 Q 73.8 42.201 73.8 42.801 Q 73.8 44.201 72.65 45.301 Q 71.5 46.401 71.3 46.601 L 71.65 47.701 Q 72 48.801 73 50.201 Q 74 51.601 75.85 52.701 Q 77.7 53.801 80.8 53.801 Q 84 53.801 86.55 52.651 Q 89.1 51.501 90.95 49.951 Q 92.8 48.401 93.95 47.001 Q 95.1 45.601 95.5 45.201 Z" vector-effect="non-scaling-stroke"/></g></svg>